Coordinates
version=1
nRows=29
nColumns=24
inDegrees=yes

Units are S.I. units (second, meters, Newtons, ...)
Angles are in degrees.

endheader
time	pelvis_tilt	pelvis_list	pelvis_rotation	pelvis_tx	pelvis_ty	pelvis_tz	hip_flexion_r	hip_adduction_r	hip_rotation_r	knee_angle_r	ankle_angle_r	subtalar_angle_r	mtp_angle_r	hip_flexion_l	hip_adduction_l	hip_rotation_l	knee_angle_l	ankle_angle_l	subtalar_angle_l	mtp_angle_l	lumbar_extension	lumbar_bending	lumbar_rotation
      0.69000000	     -3.25700105	      0.38569186	      1.93033422	     -0.51948217	      1.05429263	      0.28859510	     16.72043895	      1.72621591	     -1.32065980	    -28.29747855	     18.16012128	     -3.37158742	      0.54335206	     19.81950949	     -3.20260379	     -4.92676254	    -70.55039184	      8.79699516	      9.69228090	      0.84170382	     -7.39275795	      2.16932634	     -0.32787111
      0.69416667	     -3.26494948	      0.58230780	      1.94136761	     -0.51373688	      1.05589040	      0.28857163	     16.10556597	      1.52103091	     -1.28829942	    -27.73978462	     18.16733708	     -3.31702621	      0.54691154	     20.33685426	     -2.92980821	     -5.06221573	    -70.02692436	      9.02848510	      9.69528231	      0.85288350	     -7.40445915	      1.94521941	     -0.28180134
      0.69833333	     -3.23748699	      0.79608461	      1.93606601	     -0.50800544	      1.05753626	      0.28857366	     15.45048213	      1.30347168	     -1.23455472	    -27.17190711	     18.18683064	     -3.26564720	      0.55529453	     20.79421665	     -2.64534617	     -5.21839297	    -69.42986364	      9.22222303	      9.68807292	      0.86954908	     -7.46166843	      1.69650251	     -0.19964029
      0.70250000	     -3.22878732	      1.00227101	      1.92992013	     -0.50227000	      1.05909795	      0.28856076	     14.81720250	      1.09191416	     -1.18641347	    -26.60280730	     18.17484684	     -3.22867212	      0.56419087	     21.26088224	     -2.36805574	     -5.36984565	    -68.78337339	      9.42806269	      9.69206066	      0.88760413	     -7.49735780	      1.45845644	     -0.13181431
      0.70666667	     -3.24043267	      1.22115638	      1.91522312	     -0.49653468	      1.06057526	      0.28854752	     14.21369360	      0.86593035	     -1.13451667	    -26.04706525	     18.14611458	     -3.19211470	      0.56878914	     21.73280301	     -2.07590034	     -5.52484340	    -68.07806362	      9.63232941	      9.69763261	      0.89889371	     -7.50802485	      1.20758398	     -0.09302802
      0.71083333	     -3.24769496	      1.42258812	      1.89526974	     -0.49079179	      1.06199423	      0.28854478	     13.60306322	      0.65967296	     -1.09029754	    -25.47993735	     18.12362583	     -3.15596422	      0.57198592	     22.19066871	     -1.81391987	     -5.69176923	    -67.33422039	      9.82276641	      9.68894737	      0.90709342	     -7.50552513	      0.95729396	     -0.05133216
      0.71500000	     -3.20037413	      1.64990800	      1.85218679	     -0.48509085	      1.06346811	      0.28857167	     12.94153825	      0.43447661	     -0.99470128	    -24.92485558	     18.12573615	     -3.14064279	      0.58332113	     22.56304658	     -1.52509611	     -5.86345787	    -66.51009339	      9.96142425	      9.65002560	      0.92018789	     -7.61236617	      0.69863341	      0.07339166
      0.71916667	     -3.22518708	      1.85408519	      1.81918596	     -0.47934833	      1.06473827	      0.28857112	     12.36250916	      0.22402839	     -0.94697608	    -24.37573123	     18.07780618	     -3.10914057	      0.58642624	     23.00951682	     -1.26299383	     -6.02919015	    -65.66462743	     10.14028182	      9.63452060	      0.92639130	     -7.59516509	      0.44087342	      0.11246055
      0.72333333	     -3.21439769	      2.08031783	      1.76440832	     -0.47365829	      1.06600665	      0.28858840	     11.75890125	     -0.00380294	     -0.85372349	    -23.84863571	     18.06070390	     -3.10420494	      0.59281995	     23.39620551	     -0.97691657	     -6.19707729	    -64.75147580	     10.26186133	      9.58157612	      0.93124861	     -7.65290185	      0.19376309	      0.20249464
      0.72750000	     -3.19392910	      2.29015470	      1.70797093	     -0.46795872	      1.06723226	      0.28860187	     11.14280970	     -0.21447572	     -0.76899960	    -23.31307843	     18.03760366	     -3.10066708	      0.60023999	     23.76113571	     -0.71466383	     -6.36388991	    -63.80100080	     10.37213878	      9.51218647	      0.93435671	     -7.71116979	     -0.05228804	      0.30787037
      0.73166667	     -3.16446101	      2.48689225	      1.64836499	     -0.46227136	      1.06838499	      0.28862774	     10.52108498	     -0.40978000	     -0.68049152	    -22.77948295	     18.02418981	     -3.10151548	      0.61210308	     24.10720534	     -0.47319978	     -6.52817630	    -62.81855005	     10.46457868	      9.41977224	      0.93586194	     -7.78466965	     -0.30253740	      0.44478891
      0.73583333	     -3.16487714	      2.68981242	      1.58213237	     -0.45658467	      1.06940426	      0.28864822	      9.94771173	     -0.61531579	     -0.59731692	    -22.27703473	     18.00833348	     -3.10069274	      0.62232253	     24.47096670	     -0.22523386	     -6.68978628	    -61.79295723	     10.54361311	      9.32499041	      0.93340904	     -7.81753015	     -0.54652480	      0.54725809
      0.74000000	     -3.17698234	      2.89050003	      1.51347556	     -0.45091119	      1.07031263	      0.28866402	      9.40150243	     -0.82102641	     -0.52131788	    -21.80120444	     17.98115529	     -3.09158307	      0.62673596	     24.83591730	      0.02000798	     -6.84033676	    -60.73168081	     10.61969729	      9.24215736	      0.92879286	     -7.83722624	     -0.78091073	      0.61414958
      0.74416667	     -3.18340696	      3.07370569	      1.44405756	     -0.44523620	      1.07115790	      0.28868541	      8.84756967	     -1.00676480	     -0.44246069	    -21.31756845	     17.96531589	     -3.09015791	      0.62998747	     25.18517516	      0.24098205	     -6.98556155	    -59.64123262	     10.66184545	      9.12520538	      0.92121157	     -7.86541126	     -1.02344429	      0.69793525
      0.74833333	     -3.15873536	      3.25078571	      1.36666753	     -0.43960666	      1.07195761	      0.28869225	      8.27296529	     -1.18557740	     -0.35186239	    -20.85342167	     17.98842055	     -3.10731557	      0.63731791	     25.48968477	      0.45738185	     -7.11522474	    -58.51545739	     10.66524138	      8.95829808	      0.90546564	     -7.94356989	     -1.22239374	      0.86622467
      0.75250000	     -3.17049835	      3.42647682	      1.28890949	     -0.43397364	      1.07261067	      0.28870692	      7.75553938	     -1.36646250	     -0.27549510	    -20.42492605	     17.98103575	     -3.11282077	      0.63977548	     25.82104710	      0.66832331	     -7.23859253	    -57.35792846	     10.67239362	      8.84026643	      0.89202264	     -7.96930020	     -1.43104232	      0.95128204
      0.75666667	     -3.18480477	      3.57689298	      1.21675752	     -0.42834649	      1.07315157	      0.28870492	      7.24018921	     -1.51936789	     -0.19527380	    -19.99288283	     18.00588836	     -3.12018217	      0.64317856	     26.15134933	      0.85340814	     -7.33993808	    -56.18582360	     10.64840901	      8.66704156	      0.86938175	     -8.00402802	     -1.62102475	      1.09979494
      0.76083333	     -3.19224652	      3.72937922	      1.14036070	     -0.42273180	      1.07363406	      0.28870544	      6.73242060	     -1.67721444	     -0.12651717	    -19.58783649	     18.02996991	     -3.12673702	      0.64375466	     26.45754562	      1.03804909	     -7.43592761	    -54.97475048	     10.60700949	      8.50762087	      0.84508537	     -8.04084228	     -1.80634749	      1.21355884
      0.76500000	     -3.20608761	      3.86372942	      1.06700248	     -0.41712609	      1.07399963	      0.28869472	      6.24169464	     -1.81667744	     -0.06534423	    -19.20235092	     18.06524437	     -3.13265629	      0.64145311	     26.76387081	      1.20208022	     -7.51480892	    -53.74756227	     10.55102134	      8.34533794	      0.82007093	     -8.07134421	     -1.96932707	      1.32261597
      0.76916667	     -3.25725022	      3.99000837	      0.99617876	     -0.41153189	      1.07418954	      0.28867663	      5.81048813	     -1.95023581	     -0.01521705	    -18.85574991	     18.10122966	     -3.13473563	      0.63774381	     27.10262937	      1.35587415	     -7.58171551	    -52.50121707	     10.48881392	      8.21835711	      0.80139426	     -8.06025235	     -2.12260022	      1.39740310
      0.77333333	     -3.28241793	      4.10713345	      0.92638277	     -0.40594798	      1.07436217	      0.28865438	      5.35396066	     -2.07391321	      0.03616923	    -18.51233092	     18.15932318	     -3.13585888	      0.63154676	     27.39808772	      1.50278577	     -7.62581628	    -51.22104728	     10.39447043	      8.04108530	      0.77984084	     -8.08200554	     -2.26322362	      1.50268942
      0.77750000	     -3.31551329	      4.20341295	      0.86268203	     -0.40036711	      1.07441389	      0.28861411	      4.91604862	     -2.17646280	      0.07461585	    -18.19076676	     18.22614331	     -3.13116886	      0.62311688	     27.69584346	      1.62673004	     -7.65272743	    -49.93122088	     10.29740824	      7.88455816	      0.75920401	     -8.09806286	     -2.38378510	      1.60334337
      0.78166667	     -3.34775630	      4.29038113	      0.80488700	     -0.39480806	      1.07437275	      0.28855229	      4.48665116	     -2.27146266	      0.10041385	    -17.88714110	     18.32681985	     -3.10001328	      0.60583135	     27.98368375	      1.74655448	     -7.65310982	    -48.62315719	     10.18567934	      7.68882250	      0.73094359	     -8.12495803	     -2.48990973	      1.74009186
      0.78583333	     -3.40739924	      4.36537700	      0.74824190	     -0.38923948	      1.07419310	      0.28850021	      4.10416895	     -2.35376620	      0.11792220	    -17.62149951	     18.41209590	     -3.09225242	      0.59190026	     28.28892277	      1.84552061	     -7.65225087	    -47.29600595	     10.07947177	      7.57534030	      0.71228032	     -8.10744535	     -2.58212163	      1.81006656
      0.79000000	     -3.45351134	      4.42430604	      0.70229864	     -0.38368713	      1.07394734	      0.28841373	      3.71199984	     -2.42099967	      0.12102463	    -17.36790222	     18.51795842	     -3.07111368	      0.57584848	     28.57110166	      1.93547793	     -7.61795064	    -45.95449922	      9.96406792	      7.43786742	      0.69488371	     -8.11577469	     -2.65540316	      1.88968417
      0.79416667	     -3.50291089	      4.47594852	      0.65690886	     -0.37814094	      1.07361897	      0.28832108	      3.33637790	     -2.48203098	      0.11432313	    -17.14031913	     18.64384935	     -3.03126811	      0.55406283	     28.84275943	      2.01974286	     -7.56418441	    -44.59057790	      9.84631698	      7.28871574	      0.67785245	     -8.12208462	     -2.71379618	      1.97583194
      0.79833333	     -3.56147571	      4.51443274	      0.61961703	     -0.37258249	      1.07318825	      0.28820728	      2.97912161	     -2.53043215	      0.09247767	    -16.93560076	     18.78010257	     -2.98432024	      0.52945782	     29.11290134	      2.09220137	     -7.49185228	    -43.21468868	      9.73372283	      7.17448542	      0.66383965	     -8.11842679	     -2.76583517	      2.04936430
      0.80250000	     -3.63071710	      4.54028423	      0.58773340	     -0.36703139	      1.07264562	      0.28808213	      2.64631054	     -2.56646913	      0.05659193	    -16.75978360	     18.93428328	     -2.92383456	      0.50076148	     29.38436585	      2.15358614	     -7.39502569	    -41.82748848	      9.63094980	      7.06701754	      0.65252049	     -8.10498774	     -2.79663398	      2.11612279
      0.80666667	     -3.69606843	      4.55429017	      0.56226686	     -0.36148735	      1.07202518	      0.28793174	      2.31978625	     -2.59187797	      0.00756174	    -16.60868930	     19.10468924	     -2.84947642	      0.46810271	     29.64078245	      2.20670790	     -7.27483141	    -40.42957524	      9.53802397	      6.98037187	      0.64442643	     -8.09463198	     -2.81145121	      2.17491673
